<?xml version="1.0" standalone="no"?>
<!DOCTYPE svg PUBLIC "-//W3C//DTD SVG 20010904//EN"
 "http://www.w3.org/TR/2001/REC-SVG-20010904/DTD/svg10.dtd">
<svg version="1.0" xmlns="http://www.w3.org/2000/svg"
 width="300.000000pt" height="274.000000pt" viewBox="0 0 300.000000 274.000000"
 preserveAspectRatio="xMidYMid meet">
<metadata>
Created by potrace 1.10, written by Peter Selinger 2001-2011
</metadata>
<g transform="translate(0.000000,274.000000) scale(0.100000,-0.100000)"
fill="#000000" stroke="none">
<path d="M0 1370 c0 -907 3 -1370 10 -1370 7 0 10 463 10 1370 0 907 -3 1370
-10 1370 -7 0 -10 -463 -10 -1370z"/>
<path d="M1258 2564 c-335 -60 -619 -335 -705 -681 -25 -103 -22 -323 6 -428
60 -224 240 -465 408 -546 59 -29 62 -39 9 -39 -81 0 -279 -30 -394 -60 -241
-63 -359 -169 -323 -291 59 -195 442 -292 1166 -293 632 -2 1023 74 1148 223
86 102 40 224 -115 302 -110 56 -412 119 -566 119 -51 0 -48 11 12 39 24 12
77 50 118 85 327 279 411 758 197 1132 -193 337 -570 509 -961 438z m434 -101
c232 -81 412 -246 501 -458 17 -38 36 -92 44 -120 20 -73 27 -248 14 -332 -39
-250 -196 -475 -413 -594 -45 -24 -110 -81 -225 -194 -89 -88 -169 -161 -178
-163 -8 -2 -84 66 -178 160 -131 130 -180 172 -243 208 -94 53 -223 176 -277
266 -87 144 -127 284 -127 444 0 328 187 616 488 752 124 56 191 68 357 65
138 -3 157 -6 237 -34z m-613 -1582 c29 -22 20 -41 -20 -41 -31 0 -32 2 -23
38 8 27 12 27 43 3z m754 -3 c8 -28 1 -38 -28 -38 -35 0 -42 20 -14 41 31 24
35 24 42 -3z m-680 -116 l38 -39 -118 -6 c-192 -11 -379 -57 -433 -107 -100
-93 55 -176 390 -209 172 -17 270 -17 281 0 29 46 4 56 -176 69 -207 15 -433
59 -442 87 -9 25 258 79 447 89 l120 7 64 -61 c60 -58 67 -62 111 -62 44 0 51
4 111 62 l64 61 117 -7 c188 -10 459 -64 450 -89 -9 -28 -239 -73 -442 -87
-88 -7 -166 -16 -172 -22 -19 -15 -16 -46 5 -56 19 -10 230 1 357 18 211 29
335 84 335 147 0 34 -49 78 -108 97 -92 31 -239 56 -355 63 l-118 6 38 40 38
39 112 -6 c141 -8 278 -29 405 -61 152 -38 238 -88 258 -150 43 -130 -190
-227 -638 -265 -333 -28 -756 -22 -1062 16 -264 32 -442 97 -485 177 -33 62 1
119 98 169 73 36 255 82 387 97 52 6 109 13 125 15 17 1 59 4 95 5 64 1 67 0
103 -37z m102 -52 c7 -11 -39 -25 -54 -15 -7 4 -7 12 1 25 9 14 16 16 29 9 10
-5 21 -13 24 -19z m410 -10 c-10 -15 -45 -12 -45 5 0 22 33 37 43 19 4 -8 5
-19 2 -24z"/>
<path d="M1340 2420 c-159 -21 -308 -96 -431 -219 -92 -92 -138 -164 -185
-291 -26 -70 -28 -85 -28 -230 0 -144 2 -160 27 -229 90 -245 256 -408 497
-487 75 -24 100 -27 215 -27 115 0 140 3 215 27 243 79 418 254 501 501 21 61
24 89 24 215 0 133 -3 152 -28 225 -16 44 -47 112 -69 150 -54 92 -184 221
-271 270 -142 78 -316 114 -467 95z m293 -103 c209 -67 370 -227 438 -437 59
-181 37 -373 -62 -542 -167 -285 -527 -404 -834 -275 -79 33 -153 85 -219 152
-76 78 -120 151 -158 263 -26 75 -30 102 -30 197 0 96 4 122 31 205 114 353
485 547 834 437z"/>
<path d="M1307 2173 c-13 -21 -29 -52 -36 -70 -10 -23 -21 -33 -46 -37 -50
-10 -74 -41 -150 -199 -38 -80 -75 -146 -81 -146 -6 -1 -23 8 -38 20 -28 22
-60 19 -70 -7 -8 -21 10 -51 35 -59 16 -5 19 -12 14 -28 -4 -12 -10 -74 -12
-137 -6 -133 -4 -137 71 -142 46 -3 49 -5 52 -33 2 -18 15 -41 34 -57 64 -58
184 -24 192 55 l3 32 160 0 160 0 3 -32 c11 -110 213 -110 224 0 3 31 5 32 53
35 28 2 54 7 59 12 10 10 9 228 0 267 -4 15 0 23 15 28 25 8 43 38 35 59 -10
26 -42 29 -70 7 -15 -12 -32 -21 -38 -21 -6 1 -45 69 -86 151 -76 152 -99 183
-148 194 -21 4 -35 21 -62 73 l-35 67 -107 3 -107 3 -24 -38z m223 -96 c0 -8
-28 -12 -95 -12 -52 0 -95 3 -95 7 0 4 5 18 11 32 11 22 19 25 73 28 53 3 64
0 84 -20 12 -13 22 -28 22 -35z m49 -19 c12 -16 11 -18 -13 -18 -24 0 -26 2
-16 21 7 11 13 19 14 17 1 -1 8 -11 15 -20z m-259 -3 c11 -13 8 -15 -14 -15
-25 0 -33 10 -19 23 10 11 19 8 33 -8z m393 -199 c37 -71 67 -132 67 -135 0
-3 -158 -6 -350 -6 -193 0 -350 2 -350 5 0 4 4 10 9 15 5 6 34 60 66 120 31
61 61 116 67 123 8 9 60 12 217 10 l206 -3 68 -129z m-645 -159 c3 -12 -3 -17
-20 -17 -13 0 -33 -7 -44 -15 -20 -14 -34 -11 -34 7 0 4 6 8 14 8 8 0 24 9 37
20 27 22 43 21 47 -3z m779 3 c14 -11 32 -20 39 -20 8 0 11 -6 7 -15 -5 -14
-8 -14 -29 0 -13 8 -32 15 -44 15 -19 0 -27 19 -13 33 9 10 12 9 40 -13z m13
-79 c5 -11 10 -56 10 -100 l0 -81 -435 0 -435 0 0 81 c0 131 -45 119 435 119
399 0 415 -1 425 -19z m-660 -270 c0 -34 -63 -43 -80 -12 -15 30 -14 31 35 31
37 0 45 -3 45 -19z m555 10 c9 -16 -26 -42 -54 -39 -18 2 -27 10 -29 26 -3 20
1 22 37 22 22 0 42 -4 46 -9z"/>
<path d="M1132 1568 c-32 -32 2 -79 43 -60 39 18 27 72 -15 72 -9 0 -21 -5
-28 -12z"/>
<path d="M1680 1565 c-26 -32 13 -81 48 -59 34 22 22 74 -18 74 -10 0 -23 -7
-30 -15z"/>
<path d="M1407 453 c-15 -14 -7 -62 12 -68 30 -9 51 5 51 35 0 33 -42 55 -63
33z"/>
</g>
</svg>
